# xmcd CD database file
#
# Track frame offsets:
#	150
#	11820
#	24530
#	35915
#	50922
#	67332
#	85900
#	102790
#	113055
#	125100
#	140520
#	154260
#
# Disc length: 2292 seconds
#
# Revision: 0
# Processed by: cddbd v1.5.2PL0 Copyright (c) Steve Scherf et al.
# Submitted via: CDex 1.70beta2
#
DISCID=b308f20c
DTITLE=Jet Stream - Jet Stream 7
DYEAR=1900
DGENRE=Lounge
TTITLE0=ミスター・ロンリー
TTITLE1=夏の日の恋
TTITLE2=恋人よ我に返れ
TTITLE3=アルディラ
TTITLE4=イマジン
TTITLE5=サウンド・オブ・ミュージック
TTITLE6=さらばローマ
TTITLE7=マルセリーノの歌
TTITLE8=想い出のソレンツァラ
TTITLE9=想い出のグリーングラス
TTITLE10=ムーランルージュの歌
TTITLE11=夢幻飛行
EXTD=
EXTT0=
EXTT1=
EXTT2=
EXTT3=
EXTT4=
EXTT5=
EXTT6=
EXTT7=
EXTT8=
EXTT9=
EXTT10=
EXTT11=
PLAYORDER=
